<?xml version="1.0" standalone="no"?>
<!DOCTYPE svg PUBLIC "-//W3C//DTD SVG 20010904//EN"
 "http://www.w3.org/TR/2001/REC-SVG-20010904/DTD/svg10.dtd">
<svg version="1.0" xmlns="http://www.w3.org/2000/svg"
 width="512.000000pt" height="512.000000pt" viewBox="0 0 512.000000 512.000000"
 preserveAspectRatio="xMidYMid meet">

<g transform="translate(0.000000,512.000000) scale(0.100000,-0.100000)"
fill="#fff" stroke="none">
<path d="M1320 4937 c-104 -37 -987 -530 -1038 -580 -91 -89 -122 -179 -122
-355 0 -107 1 -114 25 -137 32 -33 78 -33 110 0 24 23 25 31 25 133 0 128 16
184 65 235 21 22 196 125 467 275 238 131 452 249 475 261 55 28 118 36 169
22 63 -17 951 -514 995 -557 70 -68 69 -59 69 -714 0 -657 1 -650 -70 -719
-39 -38 -915 -528 -984 -551 -86 -28 -103 -20 -610 261 -259 144 -484 273
-500 288 -16 14 -39 49 -52 76 -24 50 -24 53 -24 403 l0 353 -25 24 c-15 16
-36 25 -55 25 -19 0 -40 -9 -55 -25 l-25 -24 0 -353 c0 -383 5 -426 55 -513
51 -86 104 -122 576 -382 250 -139 478 -263 505 -275 71 -32 217 -32 288 0
125 57 965 530 1003 565 58 53 99 121 118 194 13 53 15 145 13 679 l-3 619
-24 58 c-15 38 -43 80 -80 118 -50 53 -103 85 -526 321 -259 144 -496 270
-528 280 -79 24 -158 23 -237 -5z"/>
<path d="M3200 4640 l0 -160 160 0 160 0 0 160 0 160 -160 0 -160 0 0 -160z"/>
<path d="M4240 4240 l0 -160 160 0 160 0 0 160 0 160 -160 0 -160 0 0 -160z"/>
<path d="M505 3895 l-25 -24 0 -351 0 -351 25 -24 c29 -30 74 -32 106 -6 24
19 24 23 29 237 l5 218 173 -231 c95 -127 180 -234 188 -237 32 -12 66 -5 89
19 l25 24 0 351 0 351 -25 24 c-29 30 -74 32 -106 6 -24 -19 -24 -23 -29 -237
l-5 -218 -173 231 c-95 127 -180 234 -188 237 -32 12 -66 5 -89 -19z"/>
<path d="M1305 3895 l-25 -24 0 -351 0 -351 25 -24 c15 -16 36 -25 55 -25 19
0 40 9 55 25 24 23 25 29 25 160 l0 135 135 0 c131 0 137 1 160 25 33 32 33
78 0 110 -23 24 -29 25 -160 25 l-135 0 0 80 0 80 135 0 c131 0 137 1 160 25
16 15 25 36 25 55 0 19 -9 40 -25 55 -24 25 -26 25 -215 25 -189 0 -191 0
-215 -25z"/>
<path d="M1945 3895 c-16 -15 -25 -36 -25 -55 0 -51 38 -80 105 -80 l55 0 0
-295 0 -296 25 -24 c15 -16 36 -25 55 -25 19 0 40 9 55 25 l25 24 0 296 0 295
55 0 c67 0 105 29 105 80 0 19 -9 40 -25 55 -24 25 -26 25 -215 25 -189 0
-191 0 -215 -25z"/>
<path d="M4105 3575 c-16 -15 -25 -36 -25 -55 0 -19 9 -40 25 -55 23 -23 31
-25 132 -25 l108 0 -350 -350 -350 -350 -330 0 -329 0 -391 -390 -390 -390
-260 0 -259 0 -203 -203 c-181 -181 -203 -206 -203 -235 0 -44 38 -82 81 -82
29 0 54 21 214 180 l181 180 259 0 259 0 391 390 390 390 330 0 329 0 383 382
383 383 0 -128 c0 -122 1 -129 25 -152 32 -33 78 -33 110 0 l25 24 0 231 0
231 -25 24 -24 25 -231 0 -231 0 -24 -25z"/>
<path d="M4345 2455 l-25 -24 0 -1111 0 -1111 25 -24 24 -25 271 0 271 0 24
25 25 24 0 231 0 231 -25 24 c-32 33 -78 33 -110 0 -25 -24 -25 -27 -25 -200
l0 -175 -160 0 -160 0 0 1000 0 1000 160 0 160 0 0 -695 0 -696 25 -24 c15
-16 36 -25 55 -25 19 0 40 9 55 25 l25 24 0 751 0 751 -25 24 -24 25 -271 0
-271 0 -24 -25z"/>
<path d="M3545 2055 l-25 -24 0 -911 0 -911 25 -24 24 -25 271 0 271 0 24 25
25 24 0 911 0 911 -25 24 -24 25 -271 0 -271 0 -24 -25z m455 -935 l0 -800
-160 0 -160 0 0 800 0 800 160 0 160 0 0 -800z"/>
<path d="M2745 1575 l-25 -24 0 -671 0 -671 25 -24 24 -25 271 0 271 0 24 25
25 24 0 671 0 671 -25 24 -24 25 -271 0 -271 0 -24 -25z m455 -695 l0 -560
-160 0 -160 0 0 560 0 560 160 0 160 0 0 -560z"/>
<path d="M1945 1415 l-25 -24 0 -591 0 -591 25 -24 24 -25 271 0 271 0 24 25
25 24 0 591 0 591 -25 24 -24 25 -271 0 -271 0 -24 -25z m455 -615 l0 -480
-160 0 -160 0 0 480 0 480 160 0 160 0 0 -480z"/>
<path d="M1145 1095 l-25 -24 0 -431 0 -431 25 -24 24 -25 271 0 271 0 24 25
25 24 0 431 0 431 -25 24 -24 25 -271 0 -271 0 -24 -25z m455 -455 l0 -320
-160 0 -160 0 0 320 0 320 160 0 160 0 0 -320z"/>
</g>
</svg>
