<svg width="1425" height="1162" viewBox="0 0 1425 1162" fill="none" xmlns="http://www.w3.org/2000/svg">
<g opacity="0.09">
<path d="M235.064 -135.472C220.441 -122.322 225.844 -103.567 210.905 -85.6571C196.046 -67.7516 180.002 -73.5749 168.958 -52.9354C139.841 1.73055 175.712 6.38272 131.442 52.0693C114.521 69.5157 95.7745 69.5645 89.2474 80.1439C82.7927 90.5558 86.1643 95.6853 78.1262 105.448C70.3915 114.786 65.8951 109.963 59.973 127.296C56.0264 138.878 56.8013 148.811 52.9201 157.038C48.0185 167.528 43.3072 166.315 36.0557 180.123L12.6842 235.536C17.7915 248.747 27.4549 252.631 27.9874 268.71C30.0197 334.256 43.1756 321.105 7.69459 392.474C32.0476 408.879 13.0018 432.329 26.4169 449.99C33.7842 459.724 33.536 455.077 40.9498 459.576L67.7264 492.364C109.211 539.554 76.112 534.913 123.024 570.765C133.222 578.545 141.65 583.724 152.952 592.342C166.639 602.874 164.924 608.937 182.256 619.023C213.554 637.255 224.168 614.676 256.802 610.594C313.488 603.555 282.45 629.872 353.247 601.616C370.169 594.88 395.6 578.029 412.828 583.134L469.904 627.667C488.132 636.232 504.76 620.928 522.385 624.293C530.703 625.88 537.903 635.542 545.026 645.29C562.524 669.185 529.405 726.769 530.75 747.382C532.243 770.767 569.66 808.94 582.839 825.223C589.995 834.07 620.336 904.602 620.147 917.859C619.916 941.011 612.614 914.184 617.199 940.506C619.186 951.763 623.852 955.186 627.154 963.59C642.498 1003.63 615.861 1007.06 606.573 1034.63C581.584 1108.61 588.362 1137.84 629.925 1213.97C640.591 1233.58 646.321 1235.55 646.774 1262.35C647.214 1290.45 657.761 1352.1 669.269 1375.26C680.134 1397.06 687.117 1393.49 695.533 1413.72L724.107 1484.75C725.637 1496.61 721.225 1504.05 716.892 1514.51C722.391 1521.32 724.16 1528.5 726.821 1537.1C730.266 1548.19 746.653 1554.33 754.966 1560.41C768.326 1555.67 760.779 1554.78 775.732 1550.85C787.87 1547.65 788.761 1549.07 800.261 1544.59C828.7 1533.71 838.925 1548.11 862.831 1539.36L873.428 1534.77C924.367 1516.27 910.901 1517.5 943.563 1478.83C966.567 1451.65 962.48 1454.49 980.852 1419.95C993.446 1396.29 998.507 1414.73 1006.85 1381.65C1018.2 1304.08 993.066 1326.56 1060.13 1295.56C1067.86 1260.23 1056.44 1221.93 1047.39 1186.7C1059.36 1168.13 1074.31 1159.63 1086.83 1143.73C1106.15 1119.28 1117.88 1125.18 1138.81 1109.64L1160.81 964.359C1143.14 951.021 1140.18 948.894 1136.41 918.112C1135.71 912.672 1137.1 897.387 1136.72 891.766C1124.68 846.475 1112.25 893.029 1146.36 806.609C1153.68 788.054 1149.13 794.437 1162.11 782.522C1200.64 746.962 1200.68 720.141 1257.79 679.963C1278.38 665.504 1314.23 616.274 1325.08 587.468C1354.29 510.066 1343.96 565.499 1366.7 460.079C1347.55 460.15 1348.59 469.087 1324.14 473.62C1223.57 492.391 1249.97 507.458 1198.31 466.633L1210.93 451.058C1202.93 430.974 1208 446.64 1194.82 431.747L1187.8 422.566C1164.05 392.963 1142.79 385.709 1137.81 380.995C1128.11 371.798 1128.7 340.122 1117.5 322.667C1101.76 298.184 1091.43 313.797 1088.28 271.615C1085.63 235.621 1086.38 226.83 1066.21 209.378C1051.25 196.381 1057.17 205.05 1053.51 182.275C1052.68 177.333 1055.12 177.28 1042.15 151.092C1031.46 129.521 1025.65 117.002 1017.63 93.4042C1007.2 63.0693 995.202 65.7729 999.153 35.9565L1025.13 78.2738C1044.12 50.5752 1034.17 21.5224 1027.01 -8.74652C1014.34 -7.88681 997.61 -5.16882 988.115 -7.42718C971.349 -11.4938 984.043 -10.3924 976.524 -13.8222C966 -18.5588 966.825 -18.3589 954.76 -15.3247C910.843 -4.2446 960.429 8.40304 882.91 -14.4025L853.383 -19.3214C837.708 -24.3473 853.734 -18.8501 843.705 -25.0039L807.786 -39.7107C801.552 -45.01 789.881 -59.0049 775.747 -53.4859L744.525 -35.172L729.41 14.5546C714.57 11.4451 708.765 -2.62674 683.258 -8.58425C634.974 -19.7499 666.744 -27.7914 642.316 -42.5571C614.094 -59.6493 609.162 -40.5721 566.012 -70.09L546.437 -82.5059C549.35 -101.227 555.735 -94.6276 563.2 -109.02L554.759 -141.916L565.935 -163.136C562.883 -165.339 559.141 -163.662 552.196 -160.909L542.591 -175.917C521.824 -172.486 523.735 -164.169 504.462 -164.828C486.575 -165.48 483.033 -169.21 466.055 -163.535C437.062 -153.847 451.472 -166.413 422.2 -163.497C410.201 -162.265 393.128 -156.83 377.374 -154.166C355.56 -150.514 324.535 -122.399 315.555 -118.063C307.452 -114.101 257.776 -113.171 243.667 -127.032C236.353 -134.234 243.539 -130.95 234.902 -135.463L235.064 -135.472Z" stroke="white" stroke-width="2" stroke-miterlimit="2.61313"/>
<path fill-rule="evenodd" clip-rule="evenodd" d="M963.285 1372.64C973.827 1298.07 957.398 1295.79 1018.21 1266.44C1017.24 1243.6 1009.4 1217.3 1004.46 1198.03L999.62 1179.17L1010.16 1162.81C1023.57 1142.04 1038.68 1133.36 1052.05 1116.43C1064.57 1100.53 1077.63 1090.09 1096.13 1082.12C1096.85 1081.83 1097.56 1081.55 1098.28 1081.18L1113.44 981.583C1100.01 966.625 1095.85 951.32 1092.5 923.626C1091.46 914.853 1092.41 906.707 1092.53 898.279C1092.34 897.717 1092.07 897.16 1091.88 896.68C1065.81 861.897 1091.21 825.915 1105.22 790.477C1114.06 768.08 1114.14 766.685 1132.18 750.076C1143.37 739.73 1151.36 729.07 1160.17 716.812C1182.17 686.085 1201.07 665.831 1232.43 643.828C1247.53 633.267 1277.16 589.611 1283.81 571.994C1290.38 554.626 1297.03 540.035 1304.57 523.922C1278.18 530.689 1246.01 539.002 1229.14 536.089C1206.26 532.117 1188.66 515.508 1171.05 501.599L1135.89 473.776L1154.18 451.266L1153.57 450.482C1136.01 428.639 1123.79 428.74 1107.64 413.36C1082.91 389.868 1091.3 366.759 1080.54 346.912C1078.23 343.279 1073.63 341.161 1070.21 338.161C1050.82 321.651 1046.21 299.422 1044.43 275.156C1043.94 269.051 1043.6 253.536 1041.88 247.253C1040.67 245.849 1038.7 244.158 1037.5 243.08C1012.2 221.173 1015.09 220.196 1010.19 189.561C1009.96 188.185 1009.81 186.885 1009.65 185.585C1007.94 180.856 1004.94 175.216 1002.84 170.999C992.336 149.748 983.811 130.514 976.091 108.047C965.469 76.9923 950.488 77.4087 955.031 35.6256C931.114 50.4331 899.906 37.0272 873.22 28.9316L843.272 23.8772L840.289 22.9787C833.24 20.7508 827.204 17.6495 822.281 13.9963L784.858 -1.27479L781.613 -4.03925L760.164 66.3092L720.586 58.0245C697.664 53.2371 688.547 38.2054 673.602 34.6955C645.866 28.293 622.765 18.6101 613.421 -6.7924C613.259 -6.78344 613.011 -6.85153 612.767 -6.83809C583.184 -9.62337 566.277 -16.2954 542.666 -32.4909L498.614 -60.478L503.12 -89.1779C505.121 -102.124 508.609 -111.637 515.004 -120.165L514.893 -120.731C511.08 -120.357 507.251 -120.31 503.164 -120.493C496.3 -120.769 489.543 -122.114 483.013 -122.245C482.042 -122.11 481.251 -121.657 480.288 -121.359C461.461 -115.089 447.163 -112.585 428.861 -119.425C428.129 -119.385 427.479 -119.349 426.833 -119.232C414.181 -117.963 398.404 -112.597 385.637 -110.422C372.298 -106.744 349.563 -85.052 335.179 -78.046C316.264 -68.8283 284.245 -68.3725 256.594 -74.698C254.176 -69.5776 250.723 -63.9914 245.054 -57.1385C230.955 -40.1738 222.945 -38.9968 207.193 -30.1168C186.907 9.9991 218.896 25.8148 163.24 83.086C149.092 97.6007 139.809 100.892 125.848 108.201C122.847 117.687 119.87 124.555 112.213 133.889C108.537 138.343 105.043 141.642 100.968 144.728C98.2413 154.771 98.5693 163.991 93.0071 175.907C87.885 186.9 83.4595 191.068 75.9991 199.491C75.9991 199.491 75.9991 199.491 76.0034 199.573L62.0365 232.8C67.8331 242.128 71.7369 249.598 72.2854 267.554C74.334 333.583 82.9539 336.215 59.6465 386.963C63.5527 397.54 63.7453 408.811 64.6328 422.416L70.3607 425.861L101.498 463.962C121.725 487.048 125.643 496.316 135.736 523.558C138.795 527.395 146.356 533.111 149.841 535.78C159.615 543.254 169.997 549.877 179.771 557.35C189.122 564.521 196.683 576.368 204.509 580.924C204.761 581.073 205.1 581.3 205.434 581.445C220.937 577.076 230.396 569.442 251.537 566.805C274.945 563.881 287.136 564.681 308.407 570.622C316.48 569.114 330.596 563.186 337.064 560.622C366.845 548.762 390.819 530.436 425.62 540.864L433.49 543.21L487.339 585.211C502.429 582.254 510.383 576.992 530.896 580.931C553.881 585.387 567.697 601.387 580.71 619.147C600.847 646.653 595.096 681.063 586.031 711.404C583.402 720.215 577.722 734.508 575.556 744.357C582.182 758.544 608.63 786.684 617.269 797.327C632.632 816.348 664.685 894.623 664.481 918.343C664.464 924.149 663.707 929.832 662.282 935.225C664.454 939.275 666.605 942.917 668.496 947.8C678.357 973.747 679.724 999.425 665.627 1024.07C662.046 1030.32 650.216 1043.97 648.526 1048.97C626.47 1114.04 636.035 1132.89 668.742 1192.81C683.744 1220.36 690.432 1226.53 691.002 1261.74C691.279 1282.24 700.021 1337.68 708.883 1355.59C716.01 1370 727.554 1375.49 736.621 1397.23L767.347 1473.53L768.053 1479.14C769.55 1490.42 768.795 1499.21 766.555 1507.67C772.596 1506.27 778.997 1505.51 784.592 1503.41C806.165 1495.11 820.931 1495.27 843.086 1497.9C844.481 1498.06 845.803 1498.4 847.172 1498.08L857.293 1493.68L858.572 1493.2C864.411 1491.08 880.038 1485.97 884.986 1482.42C892.422 1475.06 902.346 1459.31 909.938 1450.31C927.577 1429.39 928.835 1423.92 941.872 1399.25C948.025 1387.71 954.283 1379.68 963.524 1372.55L963.285 1372.64Z" stroke="white" stroke-width="2" stroke-miterlimit="2.61313"/>
<path fill-rule="evenodd" clip-rule="evenodd" d="M921.02 1351.76C922.861 1325.08 921.649 1300.78 937.218 1274.66C946.347 1259.28 957.46 1249.02 969.757 1241.07C966.88 1228.39 963.37 1216.07 961.619 1209.22L951.95 1171.57L973.038 1138.85C988.104 1115.54 1003.3 1106.85 1017.43 1088.98C1032.25 1070.18 1043.66 1060.89 1057.98 1052.66L1067.03 992.964C1056.9 975.78 1051.93 956.023 1048.62 929.061C1047.79 922.566 1047.8 916.597 1047.89 910.624C1020.24 863.009 1045.49 821.31 1064.1 774.173C1075.53 745.255 1079.1 738.763 1102.26 717.374C1111.04 709.287 1117.34 700.518 1124.32 690.813C1149.3 655.998 1171.68 632.281 1205.4 608.675C1210.86 603.959 1220.03 592.417 1227.98 580.941C1205.5 578.337 1181.62 566.244 1143.57 536.208L1073.17 480.565L1092.3 456.946C1087.32 453.786 1082.24 450.223 1077.09 445.356C1049.35 419.004 1049.96 399.92 1042.11 371.982C1013.14 347.006 1003.23 318.609 1000.27 278.301C1000.02 275.208 999.931 271.943 999.667 268.524C974.878 245.525 972.58 234.532 966.613 197.497C965.507 195.105 964.32 192.717 963.223 190.488C951.891 167.566 942.615 146.492 934.231 122.263C931.919 115.604 925.344 106.973 922.035 99.9602C919.652 95.0223 917.671 89.9806 916.101 84.998C898.932 82.5917 881.118 77.2775 863.227 72.0493L832.786 66.9401L826.815 65.0615C824.824 64.4354 822.834 63.8091 820.844 63.1829C819.35 62.6929 817.856 62.2029 816.444 61.7084C813.781 60.7104 811.196 59.6264 808.606 58.4609L790.482 117.754L711.404 101.18C688.314 96.3196 678.196 88.5375 660.622 76.9964C629.314 69.4004 602.516 56.1599 585.254 33.6458C560.372 28.8027 542.252 20.8073 518.811 4.76554L450.282 -38.7982L455.392 -71.4565C445.392 -70.9057 435.399 -71.7451 425.234 -74.2921C416.605 -72.5085 407.689 -69.9734 398.82 -68.0949C384.306 -60.4276 370.705 -46.3515 354.249 -38.4137C333.426 -28.2731 305.319 -24.7625 277.066 -27.0489C266.318 -14.5199 256.217 -6.68684 244.035 0.361458C244.051 3.71275 244.229 7.05509 244 10.4198C241.999 52.4727 223.384 84.1581 194.629 113.786C182.802 125.965 172.349 133.327 160.317 140.122C156.557 147.606 151.881 154.731 145.828 162.014C144.374 163.811 142.912 165.445 141.45 167.079C139.565 176.095 137.479 184.385 132.797 194.455C127.38 206.036 121.25 214.958 113.405 223.812L110.218 231.346C113.782 241.614 115.754 252.625 116.209 265.763C116.855 287.067 120.936 308.59 120.182 329.644C119.377 351.273 113.675 371.291 105.816 390.61C106.491 394.089 107.088 397.653 107.528 401.308L134.918 434.875C153.502 456.171 164.696 473.46 173.671 498.066C174.609 498.832 175.542 499.516 176.39 500.123C186.165 507.597 196.628 514.216 206.408 521.771C209.807 524.364 212.796 526.897 215.622 529.44C224.593 526.411 233.843 524.021 245.914 522.538C268.758 519.727 287.102 519.697 307.488 524.297C312.048 522.656 316.676 520.766 320.509 519.247C361.448 502.52 389.299 483.489 438.191 498.211L454.019 502.98L497.577 536.964C510.498 534.617 522.702 534.108 539.179 537.289C574.359 544.099 596.122 565.384 616.173 592.814C645.456 632.816 641.576 679.388 628.135 724.033C626.893 728.271 625.335 732.69 623.78 737.191C632.608 748.314 644.432 760.581 651.328 769.113C673.755 796.739 708.808 883.844 708.449 918.448C708.455 921.636 708.295 924.752 707.972 927.877C708.53 929.154 709.006 930.436 709.482 931.718C731.083 988.25 719.987 1021.81 688.579 1067.45C673.09 1114.98 681.399 1124.01 707.242 1171.4C725.947 1205.69 734.181 1217.91 734.838 1260.88C735.056 1277.22 741.767 1319.03 747.826 1334.81C760.743 1349.22 769.015 1360.62 777.246 1380.44L806.279 1452.51C816.745 1451.52 827.122 1451.93 839.246 1452.98L840.679 1452.33L843.16 1451.46C847.241 1450.01 852.046 1448.35 856.52 1446.63C862.847 1438.36 868.921 1429.93 875.903 1421.69C891.243 1403.51 890.543 1401.1 902.55 1378.53C907.96 1368.34 913.931 1359.5 920.935 1351.68L921.02 1351.76Z" stroke="white" stroke-width="2" stroke-miterlimit="2.61313"/>
<path fill-rule="evenodd" clip-rule="evenodd" d="M878.141 1334.59C879.704 1307.27 879.657 1284.95 899.347 1251.98C905.856 1241 912.803 1232.11 920.064 1224.51C919.651 1222.9 919.252 1221.53 918.943 1220.32L904.355 1163.81L935.993 1114.81C951.736 1090.4 965.588 1079.5 982.816 1061.54C994.274 1047.01 1005.34 1035.93 1017.25 1026.69L1021.23 1000.47C1012.89 981.72 1007.93 960.408 1004.84 934.578C1004.37 930.434 1004.08 926.525 1003.88 922.612C975.987 865.934 1000.02 816.534 1023.08 758.031C1037.09 722.51 1044.14 711.002 1072.43 684.915C1078.73 679.091 1083.58 672.119 1088.51 665.143C1108.02 637.986 1126.6 616.44 1149.51 596.455C1138.59 588.962 1127.94 580.391 1116.28 571.222L1010.73 487.753L1031.85 461.734C1014.57 440.447 1008.86 420.647 1002.4 395.739C973.775 366.574 960.902 331.553 956.786 287.955C937.611 266.282 927.357 243.708 923.536 210.233C911.75 186.435 902.014 164.405 893.343 139.373C890.377 134.222 887.665 129.221 885.123 124.373C874.714 121.84 864.112 118.744 853.261 115.581L838.204 113.058L820.916 169.69L702.252 144.83C677.265 139.584 660.826 131.005 641.713 118.159C610.091 109.271 582.418 94.9341 561.489 74.0113C537.823 67.5475 516.971 57.2496 493.461 41.4564L402.057 -16.6286L402.052 -16.7101C393.503 -10.3523 384.795 -3.90405 373.429 1.62775C350.778 12.6869 323.095 18.0546 294.65 18.3133C291.926 20.7527 289.193 23.0291 286.456 25.2239C280.976 72.3752 264.167 105.842 226.286 144.804C215.232 156.205 204.519 164.808 193.009 172.228C189.778 177.393 186.135 182.5 182.168 187.624C179.928 196.087 177.024 204.342 172.85 213.238C168.381 222.723 163.453 231.253 157.759 239.17C159.246 247.183 160.1 255.557 160.325 264.375C161.04 286.984 165.117 308.426 164.296 331.283C163.584 351.599 159.601 370.215 153.786 388.114L168.705 406.424C186.947 427.413 200.129 446.801 210.263 470.198C215.35 473.843 220.595 477.397 225.686 481.123C230.367 480.211 235.296 479.367 240.563 478.75C263.002 475.96 282.961 475.596 303.26 478.566C353.769 456.243 391.782 438.124 450.868 455.882L474.568 462.998L510.471 491.026C522.102 490.468 534.051 491.281 547.563 493.889C594.197 502.93 624.91 529.937 651.735 566.642C687.702 615.762 688.074 671.748 673.164 727.104C677.588 732.093 681.923 736.924 685.499 741.306C714.995 777.618 752.957 873.396 752.529 918.961C752.564 919.613 752.513 920.188 752.467 920.845C775.26 984.426 764.857 1035.61 728.189 1088.16C726.306 1094.15 724.536 1100.71 724.192 1104.98C726.738 1116.04 740.695 1140.78 745.846 1150.22C768.168 1191.18 778.051 1209.85 778.855 1260.17C779.074 1271.94 783.107 1297.14 787.206 1312.86C799.914 1327.94 809.276 1342.96 817.417 1362.62L833.855 1403.33C836.532 1400 839.204 1396.58 842.043 1393.24C844.728 1390.06 847.648 1386.71 850.239 1383.3C854.773 1375.04 858.951 1366.22 863.4 1357.88C867.767 1349.55 872.575 1341.84 877.902 1334.68L878.141 1334.59Z" stroke="white" stroke-width="2" stroke-miterlimit="2.61313"/>
<path fill-rule="evenodd" clip-rule="evenodd" d="M836.392 1304C838.386 1281.74 842.953 1260.31 861.361 1229.29C864.652 1223.71 868.046 1218.54 871.457 1213.69L856.649 1156.12L898.833 1090.76C915.178 1065.41 930.624 1050.75 950.915 1030.58C958.876 1020.82 966.893 1012.12 975.206 1004.38C968.396 985.218 963.843 964.047 960.928 939.924C960.67 938.14 960.497 936.432 960.406 934.72C931.402 869.355 954.714 811 982.093 741.711C998.695 699.752 1009.22 683.065 1042.65 652.28C1046.22 648.976 1049.99 643.127 1052.72 639.297C1062.66 625.422 1072.51 612.861 1082.73 601.096L948.226 494.692L977.606 458.407C971.297 445.591 966.674 432.273 962.473 417.705C935.279 386.335 920.418 349.215 914.441 305.884C896.295 282.109 885.282 255.98 880.592 223.043C874.18 209.823 868.359 196.98 862.922 183.707L851.465 221.213L693.294 187.982C665.585 182.149 644.604 172.513 622.82 158.505C590.819 148.657 562.294 133.631 539.114 113.322C515.216 105.563 492.916 94.1185 469.491 78.4023L402.897 36.0384C399.813 37.8436 396.562 39.5761 392.986 41.3266C372.636 51.1961 349.652 57.5315 325.428 60.5011C315.143 103.175 293.803 138.854 258.162 175.485C247.34 186.628 236.575 195.806 225.181 203.874C224.271 205.151 223.441 206.423 222.449 207.704C219.935 215.61 216.933 223.543 213.053 231.851C210.199 237.977 207.165 243.786 203.874 249.363C204.271 253.757 204.591 258.236 204.672 262.81C205.371 286.646 209.534 308.166 208.641 332.744C208.02 348.64 205.955 363.471 202.718 377.712C218.707 396.209 231.568 414.142 242.076 433.841C260.968 431.819 278.804 431.409 296.501 432.968C351.781 408.338 398.869 393.725 463.841 413.285L495.417 422.829L525.956 446.575C535.684 447.02 545.694 448.185 556.24 450.221C614.162 461.42 654.08 494.379 687.67 540.197C732.166 600.948 732.944 655.359 720.642 713.76C755.312 756.902 794.686 856.2 796.976 912.98C819.667 982.291 809.692 1044.57 771.564 1103.41C775.705 1112.26 781.271 1121.85 784.978 1128.68C810.913 1176.22 822.543 1201.66 823.361 1258.36C823.731 1266.85 825.783 1280.88 828.278 1292.51C831.165 1296.2 833.894 1299.97 836.46 1303.75L836.392 1304Z" stroke="white" stroke-width="2" stroke-miterlimit="2.61313"/>
<path fill-rule="evenodd" clip-rule="evenodd" d="M829.165 1117.19L861.781 1066.66C879.176 1039.62 896.574 1021.82 918.506 1000.34C920.802 997.512 923.106 994.851 925.41 992.189C921.886 978.075 919.213 963.097 917.224 947.182C886.457 873.167 909.345 805.354 940.886 725.455C959.998 677.063 974.24 655.103 1010.63 621.785C1014.3 617.331 1017.74 613.053 1021.03 608.947L885.429 501.709L926.517 451.044C925.171 447.193 923.82 443.262 922.546 439.244C896.067 405.955 879.986 367.351 872.276 323.625C860.148 305.652 850.886 286.377 844.465 265.309L683.916 231.638C653.242 225.234 628.291 214.508 603.67 199.267C571.136 188.55 541.769 172.998 516.888 152.866C492.362 143.997 469.044 131.792 445.116 115.777L399.713 86.9638C386.949 92.2455 373.477 96.5033 359.619 99.6377C345.527 138.187 322.579 172.727 289.651 206.672C280.065 216.521 270.413 225.147 260.47 232.89C258.258 238.816 255.802 244.757 252.944 250.801C251.556 253.821 250.159 256.677 248.68 259.539C248.715 260.191 248.754 260.924 248.789 261.577C249.544 286.472 253.728 308.398 252.751 334.451C252.348 345.266 251.351 355.622 249.925 365.594C255.699 372.961 261.07 380.432 266.036 387.926C273.61 387.754 281.111 387.75 288.553 388.157C349.617 361.983 405.464 349.586 476.479 370.937L516.006 382.823L542.548 403.517C549.763 404.264 557.082 405.415 564.661 406.878C633.702 420.244 682.989 459.226 723.255 514.076C770.739 578.912 777.383 639.375 767.324 703.129C802.522 756.215 835.946 844.881 840.604 904.8C862.4 975.711 855.203 1042.66 822.142 1104.74C822.506 1105.45 822.871 1106.17 823.231 1106.8C825.296 1110.37 827.275 1113.86 829.169 1117.27L829.165 1117.19Z" stroke="white" stroke-width="2" stroke-miterlimit="2.61313"/>
<path fill-rule="evenodd" clip-rule="evenodd" d="M865.975 812.438C873.339 779.251 885.463 745.148 899.682 709.05C916.207 667.266 930.562 641.378 955.749 613.75L822.811 508.588L873.226 446.462C852.38 414.748 838.427 379.302 830.572 340.496C823.175 328.641 816.812 316.321 811.485 303.535L674.96 274.923C641.161 267.875 612.573 256.125 584.953 239.58C551.813 228.081 521.532 212.091 495.189 191.961C469.884 182.156 445.638 169.268 421.209 152.956L394.547 136.031C393.824 136.235 393.024 136.524 392.301 136.727C375.947 172.535 352.438 205.63 321.444 237.502C313.561 245.62 305.562 253.091 297.371 260.001C296.064 263.016 294.753 265.949 293.364 268.969C294.245 296.224 295.015 318.335 294.756 337.969C357.021 314.674 417.506 306.927 489.333 328.476L536.721 342.705L560.279 361.027C564.553 361.691 568.832 362.436 573.196 363.258C653.344 378.789 712.072 423.785 758.93 487.747C809.483 556.818 821.012 623.298 813.214 692.723C834.046 727.217 852.967 770.237 866.228 812.587L865.975 812.438Z" stroke="white" stroke-width="2" stroke-miterlimit="2.61313"/>
<path fill-rule="evenodd" clip-rule="evenodd" d="M860.731 687.033C870.26 662.394 880.943 641.043 893.912 621.283L852.472 588.581C858.93 619.532 860.34 650.598 858.028 682.195C858.927 683.781 859.827 685.366 860.731 687.033V687.033ZM798.842 467.779L819.498 442.364C805.776 415.818 795.538 387.364 788.79 357.083C785.925 352.255 783.213 347.254 780.664 342.245L665.745 318.086C628.812 310.312 596.748 297.529 565.963 279.688C532.137 267.492 500.943 251.146 473.365 230.759C461.781 226.002 450.333 220.747 439.014 214.831L427.993 219.117L417.589 202.851C414.812 201.206 411.949 199.484 409.162 197.675C393.755 222.147 375.027 245.495 353.081 268.12C349.914 271.4 346.737 274.518 343.561 277.636C393.815 267.674 445.309 268.761 502.06 285.906L557.318 302.562L578.579 319.128C579.567 319.319 580.556 319.51 581.544 319.701C672.724 337.402 740.978 388.408 794.427 461.401C796.007 463.521 797.506 465.646 799.009 467.852L798.842 467.779Z" stroke="white" stroke-width="2" stroke-miterlimit="2.61313"/>
</g>
</svg>
